<?xml version="1.0" standalone="no"?>
<!DOCTYPE svg PUBLIC "-//W3C//DTD SVG 20010904//EN"
 "http://www.w3.org/TR/2001/REC-SVG-20010904/DTD/svg10.dtd">
<svg version="1.0" xmlns="http://www.w3.org/2000/svg"
 width="48.000000pt" height="48.000000pt" viewBox="0 0 48.000000 48.000000"
 preserveAspectRatio="xMidYMid meet">

<g transform="translate(0.000000,48.000000) scale(0.100000,-0.100000)"
fill="#000000" stroke="none">
<path d="M179 431 c-39 -13 -79 -42 -79 -57 0 -20 18 -17 47 6 55 43 142 38
200 -13 43 -38 63 -81 63 -138 0 -28 4 -39 13 -36 8 3 12 23 11 60 -2 101 -73
174 -175 182 -30 3 -66 1 -80 -4z"/>
<path d="M200 330 c-23 -23 -27 -60 -6 -60 8 0 16 10 18 23 2 16 10 22 28 22
33 0 39 -34 10 -60 -21 -19 -28 -65 -10 -65 6 0 10 4 10 9 0 4 11 20 25 35 14
15 25 38 25 52 0 29 -32 64 -60 64 -11 0 -29 -9 -40 -20z"/>
<path d="M44 275 c-17 -69 22 -159 89 -203 34 -23 52 -27 107 -27 56 0 73 4
108 28 23 15 42 34 42 42 0 20 -4 19 -48 -10 -74 -49 -150 -45 -212 11 -45 41
-64 90 -57 145 4 29 2 39 -9 39 -7 0 -16 -11 -20 -25z"/>
<path d="M224 149 c-10 -17 13 -36 27 -22 12 12 4 33 -11 33 -5 0 -12 -5 -16
-11z"/>
</g>
</svg>
